<?xml version="1.0" encoding="UTF-8" standalone="no"?>
<!-- Created with Inkscape (http://www.inkscape.org/) -->

<svg
   xmlns:dc="http://purl.org/dc/elements/1.1/"
   xmlns:cc="http://creativecommons.org/ns#"
   xmlns:rdf="http://www.w3.org/1999/02/22-rdf-syntax-ns#"
   xmlns:svg="http://www.w3.org/2000/svg"
   xmlns="http://www.w3.org/2000/svg"
   xmlns:sodipodi="http://sodipodi.sourceforge.net/DTD/sodipodi-0.dtd"
   xmlns:inkscape="http://www.inkscape.org/namespaces/inkscape"
   width="84.415634mm"
   height="73.106125mm"
   viewBox="0 0 299.11051 259.03745"
   id="svg4218"
   version="1.1"
   inkscape:version="0.91 r13725"
   sodipodi:docname="ex1.svg">
  <defs
     id="defs4220" />
  <sodipodi:namedview
     id="base"
     pagecolor="#ffffff"
     bordercolor="#666666"
     borderopacity="1.0"
     inkscape:pageopacity="0.0"
     inkscape:pageshadow="2"
     inkscape:zoom="1.4142136"
     inkscape:cx="205.72055"
     inkscape:cy="110.09723"
     inkscape:document-units="px"
     inkscape:current-layer="layer1"
     showgrid="false"
     inkscape:snap-smooth-nodes="false"
     showborder="false"
     inkscape:snap-global="true"
     inkscape:object-nodes="true"
     inkscape:window-width="1863"
     inkscape:window-height="1053"
     inkscape:window-x="57"
     inkscape:window-y="27"
     inkscape:window-maximized="1"
     fit-margin-top="0"
     fit-margin-left="0"
     fit-margin-right="0"
     fit-margin-bottom="0" />
  <metadata
     id="metadata4223">
    <rdf:RDF>
      <cc:Work
         rdf:about="">
        <dc:format>image/svg+xml</dc:format>
        <dc:type
           rdf:resource="http://purl.org/dc/dcmitype/StillImage" />
        <dc:title></dc:title>
      </cc:Work>
    </rdf:RDF>
  </metadata>
  <g
     inkscape:label="Layer 1"
     inkscape:groupmode="layer"
     id="layer1"
     transform="translate(921.03596,-184.10559)">
    <path
       inkscape:connector-curvature="0"
       style="opacity:1;fill:#ff6600;fill-rule:evenodd;stroke:none;stroke-width:1px;stroke-linecap:butt;stroke-linejoin:miter;stroke-opacity:1"
       d="m -786.33007,184.10559 -134.70508,233.31641 29.69922,0 90.15625,0 -14.84961,-25.71875 -60.45703,0 45.07813,-78.08008 90.15624,0 -14.8496,-25.71875 -60.45704,0 59.92774,-103.79883 -29.69922,0 z"
       id="path4772" />
    <path
       inkscape:connector-curvature="0"
       style="opacity:1;fill:#ff9955;fill-rule:evenodd;stroke:none;stroke-width:1px;stroke-linecap:butt;stroke-linejoin:miter;stroke-opacity:1"
       d="m -816.55991,339.34517 -14.84829,-25.71951 -45.07812,78.07759 29.6979,-7.5e-4 30.22851,-52.35733 z"
       id="path4791" />
    <path
       id="path4794"
       d="m -756.10288,339.34516 14.84961,-25.71875 -90.15624,0 14.8496,25.71876 60.45703,-10e-6 z"
       style="opacity:1;fill:#2b1100;fill-rule:evenodd;stroke:none;stroke-width:1px;stroke-linecap:butt;stroke-linejoin:miter;stroke-opacity:1"
       inkscape:connector-curvature="0" />
    <path
       id="path4796"
       d="m -906.18637,443.14273 269.41048,-1.8e-4 -14.84961,-25.72028 -45.07813,-78.0776 -14.84828,25.71951 30.22851,52.35733 -90.15839,10e-4 -45.07812,-78.07759 -14.84829,25.7195 30.22852,52.35733 -119.8563,4.7e-4 14.84961,25.72028 z"
       style="opacity:1;fill:#2b1100;fill-opacity:1;fill-rule:evenodd;stroke:none;stroke-width:1px;stroke-linecap:butt;stroke-linejoin:miter;stroke-opacity:1"
       inkscape:connector-curvature="0" />
    <path
       id="path4798"
       d="m -756.63003,391.70275 -14.8496,25.71875 90.15623,1e-5 -14.8496,-25.71877 -60.45703,10e-6 z"
       style="opacity:1;fill:#ff6600;fill-opacity:1;fill-rule:evenodd;stroke:none;stroke-width:1px;stroke-linecap:butt;stroke-linejoin:miter;stroke-opacity:1"
       inkscape:connector-curvature="0" />
    <path
       inkscape:connector-curvature="0"
       style="opacity:1;fill:#ff9955;fill-opacity:1;fill-rule:evenodd;stroke:none;stroke-width:1px;stroke-linecap:butt;stroke-linejoin:miter;stroke-opacity:1"
       d="m -786.85855,339.34543 -29.6979,-7.6e-4 45.07812,78.07759 14.8483,-25.71951 -30.22852,-52.35732 z"
       id="path4800" />
    <path
       inkscape:connector-curvature="0"
       style="opacity:1;fill:#ff9955;fill-opacity:1;fill-rule:evenodd;stroke:none;stroke-width:1px;stroke-linecap:butt;stroke-linejoin:miter;stroke-opacity:1"
       d="m -621.92546,417.42275 -134.7054,-233.31622 -14.84961,25.72027 -45.07812,78.07761 29.69789,-7.7e-4 30.22852,-52.35732 45.08026,78.07884 -45.07812,78.0776 29.6979,-7.6e-4 30.22852,-52.35733 59.92855,103.79836 14.84961,-25.72028 z"
       id="path4802" />
    <path
       inkscape:connector-curvature="0"
       style="opacity:1;fill:#2b1100;fill-opacity:1;fill-rule:evenodd;stroke:none;stroke-width:1px;stroke-linecap:butt;stroke-linejoin:miter;stroke-opacity:1"
       d="m -741.25196,313.62315 29.69789,7.6e-4 -45.07811,-78.07759 -14.8483,25.71951 30.22852,52.35732 z"
       id="path4804" />
    <path
       id="path4806"
       d="m -771.48047,365.98048 14.84829,25.71951 45.07812,-78.07759 -29.6979,7.5e-4 -30.22851,52.35733 z"
       style="opacity:1;fill:#ff6600;fill-opacity:1;fill-rule:evenodd;stroke:none;stroke-width:1px;stroke-linecap:butt;stroke-linejoin:miter;stroke-opacity:1"
       inkscape:connector-curvature="0" />
  </g>
</svg>
